<?xml version="1.0" encoding="utf-8"?>
<!-- Generator: Adobe Illustrator 24.0.1, SVG Export Plug-In . SVG Version: 6.00 Build 0)  -->
<svg version="1.1" id="Capa_1" xmlns="http://www.w3.org/2000/svg" xmlns:xlink="http://www.w3.org/1999/xlink" x="0px" y="0px"
	 viewBox="0 0 291.43 105.06" style="enable-background:new 0 0 291.43 105.06;" xml:space="preserve">
<style type="text/css">
	.st0{fill:none;stroke:#36A9E1;stroke-width:2;stroke-linecap:round;stroke-miterlimit:10;}
	.st1{fill:#FFFFFF;stroke:#36A9E1;stroke-width:2;stroke-miterlimit:10;}
	.st2{fill:none;stroke:#36A9E1;stroke-width:2;stroke-miterlimit:10;}
	.st3{fill:none;stroke:#36A9E1;stroke-width:5;stroke-linecap:round;stroke-linejoin:round;stroke-miterlimit:10;}
	.st4{fill:none;stroke:#2D2E83;stroke-width:9;stroke-linecap:round;stroke-linejoin:round;stroke-miterlimit:10;}
	.st5{font-family:'Avenir-Oblique';}
	.st6{font-size:12.3577px;}
	.st7{font-size:8px;}
</style>
<g>
	<polygon class="st0" points="128.47,82.36 4.47,82.36 35.47,6.36 159.47,6.36 	"/>
	<g>
		<polyline class="st1" points="67.82,37.37 4.47,82.36 67.82,37.37 		"/>
		<polyline class="st2" points="35.47,6.36 81.97,50.94 159.47,6.36 		"/>
		<polyline class="st1" points="105.42,37.37 128.47,82.36 105.42,37.37 		"/>
	</g>
	<polyline class="st3" points="285.63,6.36 217.12,6.36 201.62,44.36 270.13,44.36 254,82.36 185.49,82.36 	"/>
	<polyline class="st4" points="227.37,6.36 155.72,6.36 124.72,82.36 196.37,82.36 211.87,44.36 176.05,44.36 	"/>
	<text transform="matrix(1 0 0 1 2.0002 100.7773)"><tspan x="0" y="0" class="st5 st6">Servicio de Paquetería Gustavo</tspan><tspan x="173.8" y="0" class="st5 st7">®</tspan></text>
</g>
</svg>
